<?xml version="1.0" encoding="UTF-8"?>
<svg preserveAspectRatio="xMinYMin meet" viewBox="0 0 361 361" xmlns="http://www.w3.org/2000/svg">
<rect class="" width="100%" height="100%" fill="none" style=""/>
<g class="currentLayer" style="">
<title>Layer 1</title>
<path class="" d="m302.31 71.632l-23.241 260.36-104.47 28.962-104.18-28.922-23.217-260.4h255.11z" fill="#E44D26"/>
<path class="" d="m174.75 338.82l84.417-23.403 19.86-222.49h-104.28v245.89z" fill="#F16529"/>
<path class="" d="m129.57 156.8h45.18v-31.937h-80.083l0.764 8.568 7.85 88.01h71.469v-31.937h-42.261l-2.919-32.704zm7.198 80.61h-32.06l4.474 50.146 65.421 18.16 0.147-0.04v-33.228l-0.14 0.037-35.568-9.604-2.274-25.471z" fill="#EBEBEB"/>
<path class="" d="m70.933 0.8658h16.23v16.035h14.847v-16.035h16.231v48.558h-16.23v-16.26h-14.847v16.26h-16.23v-48.558zm68.65 16.103h-14.286v-16.103h44.814v16.103h-14.295v32.455h-16.23v-32.455h-1e-3zm37.64-16.103h16.923l10.41 17.062 10.4-17.062h16.93v48.558h-16.164v-24.068l-11.166 17.265h-0.28l-11.173-17.265v24.068h-15.88v-48.558zm62.74 0h16.235v32.508h22.824v16.05h-39.06v-48.558z"/>
<path class="" d="m174.64 221.44h39.327l-3.708 41.42-35.62 9.614v33.226l65.473-18.145 0.48-5.396 7.506-84.08 0.779-8.576h-74.237v31.937zm0-64.719v0.078h77.143l0.64-7.178 1.456-16.191 0.763-8.568h-80.002v31.86z" fill="#FFF"/>
</g>
</svg>
